<svg xmlns="http://www.w3.org/2000/svg" width="282" height="275" viewBox="0 0 282 275" fill="none"><path d="M119.589 218.427C117.718 217.97 116.194 217.644 114.715 217.21C87.3634 209.258 66.8662 192.791 53.2667 167.806C48.088 158.291 44.7588 148.123 43.1051 137.434C42.4523 133.198 42.1259 128.896 41.9736 124.638C41.3643 108.04 44.737 92.2455 52.3745 77.5157C66.4745 50.2938 88.4949 32.8918 118.327 25.4183C123.179 24.2016 128.097 23.4412 133.08 23.1371C135.712 22.9633 138.345 22.7678 140.978 22.7678C151.488 22.7243 160.518 30.5454 161.911 40.9736C163.412 52.2926 155.927 62.5252 144.656 64.5891C143.459 64.8064 142.24 64.8498 141.044 64.8498C113.844 65.0236 91.2583 83.6423 85.2963 109.104C84.1866 113.841 83.6643 118.664 83.8384 123.53C84.2736 135.718 88.1467 146.711 95.4796 156.488C106.337 170.935 113.844 186.947 117.456 204.696C118.349 209.106 118.849 213.625 119.589 218.427Z" fill="#F26F21"></path><path d="M162.629 218.296C162.825 216.341 162.933 214.538 163.173 212.778C164.108 205.956 165.545 199.221 167.655 192.66C171.898 179.473 178.274 167.393 186.629 156.335C189.567 152.446 192.004 148.253 193.853 143.734C193.94 143.517 193.984 143.278 194.114 142.887C193.592 142.844 193.135 142.757 192.678 142.757C180.319 142.757 167.938 142.605 155.579 142.8C145.809 142.952 136.3 136.044 134.472 125.333C132.557 114.101 139.803 103.543 150.726 101.24C152.271 100.914 153.882 100.783 155.47 100.783C176.598 100.762 197.726 100.849 218.833 100.718C229.038 100.653 238.199 107.909 239.852 118.272C240.266 120.901 240.135 123.66 240.026 126.354C239.874 129.526 239.57 132.698 239.156 135.848C237.959 144.973 235.414 153.728 231.584 162.071C221.727 183.622 206.169 199.743 185.019 210.453C178.187 213.907 171.006 216.449 163.543 218.144C163.282 218.209 163.086 218.231 162.629 218.296Z" fill="#F26F21"></path><path d="M141.065 228.615C147.702 228.615 154.338 228.637 160.975 228.594C161.867 228.594 162.172 228.789 162.172 229.745C162.237 237.132 159.735 243.345 153.773 247.886C141.283 257.423 123.114 250.384 120.263 234.894C119.937 233.069 120.067 231.157 119.959 229.311C119.915 228.463 120.546 228.615 121.047 228.615C126.639 228.615 132.231 228.615 137.823 228.615C138.911 228.615 139.977 228.615 141.065 228.615Z" fill="#F26F21"></path></svg>