<svg xmlns="http://www.w3.org/2000/svg" width="210" height="96" viewBox="0 0 210 96" fill="none"><path d="M205.593 41.0096C195.537 42.5133 186.369 43.8148 176.488 42.9861C170.366 42.2289 164.142 41.6321 158.149 40.0892C151.496 37.4764 140.452 28.0391 131.885 28.6758C129.536 29.2089 126.201 32.3125 123.138 37.2363C121.558 39.7761 120.032 42.7311 118.594 45.8715C127.43 50.9997 135.97 56.3741 144.886 59.6588C159.247 63.2166 173.897 66.1021 188.117 65.8834L209.292 44.7085L205.593 41.0096ZM176.316 17.6597C168.993 10.237 159.668 5.3204 150.609 2.84041C133.604 -1.8146 118.633 1.69123 109.134 10.3463C95.8911 25.4139 89.5015 48.8705 81.6809 67.0734C80.0416 69.8292 78.5471 71.2873 77.401 71.9624C76.2554 72.6379 75.2615 73.0296 72.3828 72.6337C65.996 71.7551 60.4422 68.6509 56.2344 64.6008C47.1104 64.2378 38.3933 63.4013 29.6466 65.5495C36.4164 80.3633 50.8299 92.1871 69.341 94.7346C76.292 95.6909 83.2528 94.4092 88.7281 91.1827C94.2034 87.9554 97.9965 83.2837 100.855 78.4778C104.105 69.5172 106.839 60.4344 109.586 53.0593C112.064 46.4666 115.012 39.7395 118.402 34.2901C120.969 30.1631 123.748 26.6132 127.159 24.6299L127.102 24.5949C130.69 22.4076 135.344 21.7915 144.718 24.3578C150.184 25.8538 157.469 30.5546 162.05 35.6093C162.062 35.6231 162.073 35.6369 162.086 35.6505C171.081 36.7898 179.507 38.111 188.048 37.8756C187.516 35.608 186.78 33.4305 185.851 31.3984C183.439 26.124 180.152 21.5479 176.316 17.6593L176.316 17.6597ZM178.573 71.1223C167.799 70.5908 156.948 68.4099 147.073 65.9737C145.225 66.2539 143.192 66.218 140.797 65.9053C130.644 63.8686 122.858 60.1921 114.53 55.7781C111.234 64.669 108.848 73.1937 107.731 77.4309C117.308 82.0609 128.684 86.7381 137.906 88.0268C146.772 89.1854 156.649 87.9212 165.166 82.3536C170.526 78.8498 174.991 75.103 178.573 71.1221L178.573 71.1223ZM100.957 11.7002C90.6056 8.01687 79.3243 5.95098 67.3746 7.45225C52.6423 9.30365 41.1404 14.8964 33.8961 23.5211C31.6095 26.2423 29.8219 29.2122 28.4928 32.319C39.1612 31.2761 52.2233 30.8412 61.3086 31.4919C63.7752 30.6835 66.6949 30.0231 70.1563 29.5884C76.364 28.8082 82.955 29.8686 89.6803 32.0226C92.6802 25.5924 96.3716 18.6794 100.957 11.7006L100.957 11.7002ZM85.4922 41.6838C83.4206 40.9706 81.3299 40.3466 79.2167 39.8473C62.2625 35.8586 42.4331 36.3866 25.3185 38.2716C17.2679 39.4626 9.57 41.1475 2.36248 43.0545L0.708275 44.7087L18.2987 62.2992C26.5225 60.609 35.1865 58.6604 42.9125 58.5569C53.2731 58.4984 64.8418 59.4036 74.0825 61.5577C75.166 61.8139 76.3754 62.2052 77.6778 62.6925C80.8168 54.8003 82.9311 47.9696 85.4915 41.6836L85.4922 41.6838Z" fill="#F55C00"></path></svg>